<svg width="64" height="64" viewBox="0 0 64 64" fill="none" xmlns="http://www.w3.org/2000/svg">
<path d="M57.7255 30.1298L53.4683 28.0823L47.8172 17.9281C46.7271 15.9692 44.8162 14.8457 42.5745 14.8457H8.875C5.56663 14.8457 2.875 17.5373 2.875 20.8457V42.9671C2.875 43.2323 2.98036 43.4867 3.16789 43.6742C3.35543 43.8617 3.60978 43.9671 3.875 43.9671H9.42737C9.907 46.9047 12.4614 49.1542 15.5325 49.1542C18.6036 49.1542 21.1581 46.9047 21.6376 43.9671H42.9199C43.3995 46.9047 45.9539 49.1542 49.025 49.1542C52.096 49.1542 54.6505 46.9047 55.1301 43.9671H60.125C60.3902 43.9671 60.6446 43.8617 60.8321 43.6742C61.0196 43.4867 61.125 43.2323 61.125 42.9671V35.5371C61.125 33.175 59.8541 31.1536 57.7255 30.1298ZM51.0479 27.846H45.2188L43.147 26.4163C42.98 26.3011 42.782 26.2393 42.5791 26.2393H37.4557V21.8603H47.717L51.0479 27.846ZM15.5325 47.1542C13.2238 47.1542 11.3454 45.276 11.3454 42.9671C11.3454 40.6582 13.2238 38.78 15.5325 38.78C17.8413 38.78 19.7196 40.6583 19.7196 42.9671C19.7196 45.2758 17.8413 47.1542 15.5325 47.1542ZM49.0251 47.1542C46.7164 47.1542 44.838 45.276 44.838 42.9671C44.838 40.6582 46.7164 38.78 49.0251 38.78C51.3339 38.78 53.2122 40.6583 53.2122 42.9671C53.2122 45.2758 51.3339 47.1542 49.0251 47.1542ZM59.125 41.9671H55.1301C54.6505 39.0295 52.0961 36.78 49.025 36.78C45.9539 36.78 43.3994 39.0295 42.9199 41.9671H21.6376C21.1581 39.0295 18.6036 36.78 15.5325 36.78C12.4614 36.78 9.90687 39.0295 9.42737 41.9671H4.875V20.8457C4.875 18.6401 6.66937 16.8457 8.875 16.8457H42.5745C44.069 16.8457 45.3429 17.5947 46.0698 18.9006L46.6039 19.8603H36.4557C36.1905 19.8603 35.9362 19.9657 35.7486 20.1532C35.5611 20.3408 35.4557 20.5951 35.4557 20.8603V27.2393C35.4557 27.5045 35.5611 27.7589 35.7486 27.9464C35.9362 28.134 36.1905 28.2393 36.4557 28.2393H42.2676L44.3394 29.669C44.5063 29.7842 44.7044 29.8459 44.9072 29.846H52.5209L56.8587 31.9322C58.2779 32.6147 59.125 33.9623 59.125 35.537V41.9671ZM30.1572 28.846C30.1572 29.1112 30.0519 29.3655 29.8644 29.5531C29.6768 29.7406 29.4225 29.846 29.1572 29.846H9.29663C9.03141 29.846 8.77705 29.7406 8.58952 29.5531C8.40198 29.3655 8.29663 29.1112 8.29663 28.846C8.29663 28.5807 8.40198 28.3264 8.58952 28.1388C8.77705 27.9513 9.03141 27.846 9.29663 27.846H29.1572C29.4225 27.846 29.6768 27.9513 29.8644 28.1388C30.0519 28.3264 30.1572 28.5807 30.1572 28.846Z" fill="#2C2C2C"/>
</svg>
