<svg width="242" height="34" viewBox="0 0 242 34" fill="none" xmlns="http://www.w3.org/2000/svg">
<g id="&#208;&#155;&#208;&#190;&#208;&#179;&#208;&#190;" clip-path="url(#clip0_1_1153)">
<path id="Vector" d="M10.237 6.22009C11.085 3.75209 15.228 1.92409 17.205 1.41309C16.978 1.26909 15.418 0.918092 14.123 1.01709C11.542 1.21509 6.813 3.13509 5.443 6.71509C4.072 10.2951 6.026 12.7471 7.904 14.2941C9.782 15.8401 15.02 17.9891 15.694 20.8611C16.368 23.7331 14.694 26.1771 12.884 27.5031C11.436 28.5631 11.04 29.7181 11.017 30.1061C11.684 28.7731 18.833 26.2311 20.194 24.6261C21.206 23.4311 21.906 21.3661 20.534 18.5261C19.024 15.3931 15.944 13.8531 13.842 12.4581C11.95 11.2001 9.177 9.30509 10.237 6.22009Z" fill="#E4B5AF"/>
<path id="Vector_2" d="M3.77 5.38602C6.847 1.68202 11.968 0.923016 14.144 1.00702C9.116 1.96702 4.269 5.38602 5.114 9.81102C5.958 14.235 11.113 15.806 14.105 18.428C17.211 21.148 15.72 24.386 14.612 25.818C13.725 26.963 11.951 28.813 11.174 29.595C11.232 29.344 11.47 28.694 11.958 28.103C12.568 27.364 13.556 26.572 13.956 25.543C14.356 24.516 14.566 23.861 13.36 22.33C12.056 21.036 10.255 20.175 8.8 19.345C7.345 18.515 5.212 16.435 4.752 15.895C4.292 15.355 -0.0730004 10.016 3.772 5.38602H3.77Z" fill="#1A1A1A"/>
<path id="Vector_3" d="M1.786 11.09C1.509 9.44404 2.049 7.42904 2.414 6.57204C-0.706 11.209 -0.235001 15.168 0.703999 18.116C1.61 20.956 3.825 23.786 6.791 25.356C8.531 26.278 10.416 27.207 11.072 27.713C12.02 27.401 14.13 25.103 13.288 23.42C12.34 21.527 9.55 21.322 6.6 18.719C3.65 16.115 2.139 13.188 1.786 11.09ZM25.94 9.17604C24.21 4.49304 19.671 2.11804 17.818 1.64404C16.579 2.29004 14.936 3.38704 14.027 4.16204C12.891 5.13004 13.483 7.01304 14.29 9.33704C15.097 11.661 22.312 16.782 22.661 19.429C22.941 21.546 22.173 23.116 21.754 23.636L22.312 23.152C24.574 21.172 28.102 15.028 25.94 9.17604Z" fill="#636363"/>
<path id="Vector_4" d="M15.138 6.71092C14.137 4.62092 16.716 2.50492 18.063 1.70792L17.822 1.63892C15.832 2.21892 12.01 4.13692 11.195 5.85892C10.451 7.43192 10.66 9.02592 13.095 10.9759C15.53 12.9259 18.477 14.1739 20.663 17.3199C22.413 19.8359 22.093 22.5939 21.741 23.6629L22.435 23.0459C24.372 17.7159 22.975 15.2209 21.998 13.8929C20.271 11.5469 16.389 9.32292 15.138 6.71092Z" fill="#1A1A1A"/>
<path id="Vector_5" fill-rule="evenodd" clip-rule="evenodd" d="M14.46 28.7009L14.837 28.5059C15.107 28.3659 15.385 28.2249 15.651 28.0899C16.301 27.7599 16.876 27.4669 17.056 27.3359C16.484 28.1259 15.284 29.6459 14.552 30.1529L15.474 31.5829C15.5203 31.6544 15.5464 31.7371 15.5496 31.8221C15.5528 31.9072 15.533 31.9916 15.4922 32.0664C15.4514 32.1411 15.3913 32.2035 15.318 32.2469C15.2448 32.2903 15.1611 32.3131 15.076 32.3129H12.921C12.8359 32.3131 12.7522 32.2903 12.679 32.2469C12.6057 32.2035 12.5456 32.1411 12.5048 32.0664C12.464 31.9916 12.4442 31.9072 12.4474 31.8221C12.4506 31.7371 12.4767 31.6544 12.523 31.5829L13.42 30.1929C13.1739 30.0532 12.9611 29.8618 12.796 29.6319C13.103 29.4019 13.701 29.0919 14.459 28.7019L14.46 28.7009Z" fill="#636363"/>
<path id="Vector_6" d="M49.082 24.976C47.33 24.976 45.744 24.591 44.325 23.821C42.9548 23.0659 41.8129 21.9561 41.019 20.608C40.218 19.235 39.817 17.695 39.817 15.988C39.817 14.281 40.217 12.749 41.019 11.394C41.8079 10.0333 42.9612 8.92013 44.349 8.18C45.77 7.393 47.356 7 49.108 7C50.478 7 51.729 7.234 52.865 7.703C53.9804 8.14146 54.9757 8.83859 55.769 9.737L54.142 11.318C52.822 9.929 51.179 9.234 49.209 9.234C47.907 9.234 46.729 9.527 45.678 10.114C44.6435 10.6822 43.7855 11.5243 43.198 12.548C42.614 13.569 42.322 14.716 42.322 15.988C42.322 17.26 42.614 18.415 43.199 19.453C43.7919 20.466 44.6487 21.299 45.678 21.863C46.729 22.449 47.907 22.742 49.208 22.742C51.162 22.742 52.806 22.039 54.142 20.632L55.769 22.214C54.9661 23.1195 53.9628 23.8249 52.839 24.274C51.704 24.742 50.451 24.976 49.082 24.976ZM63.38 11.343C65.216 11.343 66.618 11.795 67.586 12.699C68.571 13.603 69.064 14.95 69.064 16.741V24.775H66.785V23.018C66.385 23.637 65.808 24.114 65.057 24.448C64.323 24.767 63.447 24.926 62.427 24.926C60.942 24.926 59.748 24.566 58.847 23.846C57.962 23.126 57.52 22.181 57.52 21.009C57.52 19.838 57.945 18.9 58.797 18.197C59.648 17.477 61.001 17.117 62.853 17.117H66.66V16.641C66.66 15.603 66.36 14.808 65.758 14.256C65.158 13.703 64.272 13.427 63.104 13.427C62.319 13.427 61.551 13.561 60.8 13.829C60.049 14.08 59.414 14.423 58.897 14.859L57.895 13.051C58.58 12.498 59.398 12.08 60.349 11.795C61.3297 11.4893 62.3528 11.3368 63.38 11.343ZM62.828 23.068C63.747 23.068 64.54 22.868 65.208 22.465C65.8703 22.053 66.3802 21.4361 66.66 20.708V18.85H62.954C60.917 18.85 59.899 19.536 59.899 20.909C59.899 21.579 60.157 22.106 60.675 22.491C61.193 22.875 61.909 23.068 62.828 23.068ZM88.693 11.469V24.775H86.514V15.06L81.556 23.27H80.504L75.596 15.035V24.776H73.393V11.47H75.872L81.08 20.458L86.44 11.47H88.693V11.469ZM93.372 11.469H95.776V21.159L103.914 11.469H106.093V24.775H103.689V15.085L95.575 24.775H93.372V11.47V11.469ZM123.268 24.926C121.916 24.926 120.706 24.633 119.637 24.047C118.608 23.4828 117.751 22.6498 117.158 21.637C116.557 20.599 116.257 19.427 116.257 18.122C116.257 16.817 116.557 15.653 117.158 14.632C117.741 13.6117 118.601 12.7765 119.637 12.222C120.706 11.636 121.916 11.343 123.268 11.343C124.47 11.343 125.539 11.586 126.474 12.072C127.404 12.5367 128.172 13.2715 128.677 14.18L126.849 15.36C126.432 14.724 125.914 14.247 125.297 13.93C124.661 13.6074 123.956 13.4434 123.243 13.452C122.375 13.452 121.591 13.645 120.889 14.03C120.201 14.4181 119.638 14.9925 119.262 15.687C118.878 16.39 118.686 17.201 118.686 18.122C118.686 19.059 118.878 19.888 119.262 20.608C119.662 21.311 120.205 21.855 120.889 22.239C121.591 22.624 122.375 22.817 123.243 22.817C123.994 22.817 124.679 22.657 125.297 22.34C125.914 22.022 126.432 21.545 126.849 20.909L128.677 22.064C128.168 22.9763 127.402 23.7185 126.474 24.198C125.539 24.683 124.47 24.926 123.268 24.926ZM157.421 11.469V24.775H138.514V11.47H140.918V22.667H146.778V11.47H149.182V22.667H155.017V11.47H157.421V11.469ZM166.821 11.343C168.658 11.343 170.06 11.795 171.028 12.699C172.013 13.603 172.506 14.95 172.506 16.741V24.775H170.227V23.018C169.826 23.637 169.25 24.114 168.499 24.448C167.764 24.767 166.888 24.926 165.87 24.926C164.384 24.926 163.19 24.566 162.289 23.846C161.404 23.126 160.962 22.181 160.962 21.009C160.962 19.838 161.387 18.9 162.239 18.197C163.09 17.477 164.442 17.117 166.295 17.117H170.102V16.641C170.102 15.603 169.801 14.808 169.2 14.256C168.599 13.703 167.714 13.427 166.546 13.427C165.761 13.427 164.993 13.561 164.242 13.829C163.491 14.08 162.856 14.423 162.339 14.859L161.337 13.051C162.022 12.498 162.84 12.08 163.791 11.795C164.772 11.4894 165.794 11.3369 166.821 11.343ZM166.27 23.068C167.189 23.068 167.982 22.868 168.649 22.465C169.312 22.053 169.822 21.4361 170.102 20.708V18.85H166.396C164.359 18.85 163.341 19.536 163.341 20.909C163.341 21.579 163.599 22.106 164.117 22.491C164.634 22.875 165.352 23.068 166.27 23.068ZM183.871 11.343C185.156 11.343 186.308 11.628 187.327 12.197C188.33 12.7508 189.155 13.5778 189.706 14.582C190.29 15.603 190.582 16.783 190.582 18.122C190.582 19.461 190.29 20.649 189.706 21.687C189.155 22.6912 188.33 23.5182 187.327 24.072C186.308 24.642 185.156 24.926 183.871 24.926C182.919 24.926 182.043 24.742 181.242 24.374C180.456 24.0049 179.769 23.4541 179.238 22.767V29.646H176.834V11.469H179.138V13.578C179.655 12.8554 180.356 12.2835 181.167 11.921C181.985 11.536 182.886 11.343 183.871 11.343ZM183.671 22.817C184.522 22.817 185.282 22.624 185.949 22.239C186.626 21.8453 187.181 21.2718 187.552 20.582C187.953 19.862 188.153 19.042 188.153 18.122C188.153 17.202 187.953 16.39 187.552 15.687C187.19 14.9904 186.633 14.4144 185.949 14.03C185.282 13.645 184.522 13.452 183.671 13.452C182.836 13.452 182.076 13.653 181.392 14.055C180.72 14.4442 180.166 15.0082 179.789 15.687C179.405 16.39 179.213 17.201 179.213 18.122C179.213 19.042 179.405 19.862 179.789 20.582C180.16 21.2718 180.715 21.8453 181.392 22.239C182.088 22.6273 182.874 22.8265 183.671 22.817ZM198.685 11.343C200.522 11.343 201.924 11.795 202.892 12.699C203.877 13.603 204.37 14.95 204.37 16.741V24.775H202.091V23.018C201.69 23.637 201.114 24.114 200.363 24.448C199.629 24.767 198.752 24.926 197.734 24.926C196.248 24.926 195.054 24.566 194.153 23.846C193.268 23.126 192.826 22.181 192.826 21.009C192.826 19.838 193.251 18.9 194.103 18.197C194.954 17.477 196.306 17.117 198.159 17.117H201.966V16.641C201.966 15.603 201.665 14.808 201.064 14.256C200.463 13.703 199.578 13.427 198.41 13.427C197.625 13.427 196.857 13.561 196.106 13.829C195.355 14.08 194.72 14.423 194.203 14.859L193.201 13.051C193.886 12.498 194.704 12.08 195.655 11.795C196.636 11.4894 197.658 11.3369 198.685 11.343ZM198.134 23.068C199.053 23.068 199.846 22.868 200.513 22.465C201.176 22.053 201.686 21.4361 201.966 20.708V18.85H198.26C196.223 18.85 195.205 19.536 195.205 20.909C195.205 21.579 195.463 22.106 195.981 22.491C196.498 22.875 197.216 23.068 198.134 23.068ZM223.999 11.469V24.775H221.82V15.06L216.862 23.27H215.81L210.902 15.035V24.776H208.698V11.47H211.178L216.386 20.458L221.745 11.47H223.999V11.469ZM228.678 11.469H231.082V21.159L239.22 11.469H241.399V24.775H238.995V15.085L230.881 24.775H228.678V11.47V11.469Z" fill="#1A1A1A"/>
</g>
<defs>
<clipPath id="clip0_1_1153">
<rect width="242" height="34" fill="white"/>
</clipPath>
</defs>
</svg>
