<svg width="64" height="64" viewBox="0 0 64 64" fill="none" xmlns="http://www.w3.org/2000/svg">
<path d="M37.6 3.00021L37.5998 14.3422L32 17.5975L26.4002 14.3423L26.4004 3C24.7959 3.70374 23.3372 4.70504 22.1003 5.95168C16.6331 11.4568 16.6333 20.3827 22.1005 25.8883C22.6966 26.4882 23.3326 27.0227 24.0001 27.4918L24.0003 52.9358C24 52.9387 23.9999 52.9417 24.0003 52.9446C24.0001 57.3936 27.5817 61.0001 32.0001 61C36.4181 61.0001 40.0001 57.3936 40 52.9446L40.0003 27.4916C40.6789 27.0142 41.3144 26.4775 41.8996 25.8879C47.3667 20.3828 47.3669 11.4569 41.8996 5.95168C40.6232 4.66637 39.1601 3.68531 37.6 3.00021Z" stroke="black" stroke-width="2" stroke-miterlimit="10" stroke-linecap="round" stroke-linejoin="round"/>
</svg>
