<svg width="64" height="64" viewBox="0 0 64 64" fill="none" xmlns="http://www.w3.org/2000/svg">
<path d="M53.4291 26.3782C52.9978 25.9362 52.6742 25.4007 52.4834 24.8133C52.2927 24.2259 52.2398 23.6025 52.329 22.9914L52.4903 21.8509C52.9741 18.4353 50.6932 15.2904 47.2948 14.6971L46.1601 14.4955C45.552 14.3909 44.9761 14.1479 44.4768 13.7854C43.9774 13.4229 43.568 12.9505 43.2802 12.4047L42.7388 11.3909C41.1202 8.34395 37.4281 7.14014 34.3293 8.66075L33.2925 9.16186C32.7389 9.43471 32.1299 9.57661 31.5127 9.57661C30.8955 9.57661 30.2865 9.43471 29.7329 9.16186L28.7019 8.65499C27.221 7.92341 25.5128 7.79942 23.9418 8.30947C22.3708 8.81952 21.0612 9.92323 20.2924 11.3852L19.751 12.3989C19.4634 12.9449 19.0541 13.4174 18.5547 13.78C18.0553 14.1425 17.4793 14.3854 16.8711 14.4898L15.7364 14.6914C12.338 15.2846 10.0571 18.4295 10.5409 21.8452L10.7022 22.9856C10.8808 24.2355 10.4776 25.4681 9.60206 26.3724L8.80143 27.1961C7.64658 28.3778 7 29.9645 7 31.6168C7 33.2691 7.64658 34.8558 8.80143 36.0375L9.60206 36.867C10.0333 37.309 10.357 37.8445 10.5477 38.4319C10.7385 39.0192 10.7914 39.6427 10.7022 40.2538L10.5409 41.3943C10.302 43.0289 10.7116 44.6921 11.6824 46.0288C12.6531 47.3654 14.108 48.2695 15.7364 48.548L16.8711 48.7496C18.1094 48.9685 19.1635 49.7288 19.751 50.8405L20.2924 51.8542C21.4387 54.0084 23.6159 55.2411 25.8968 55.2411C26.8357 55.2411 27.7976 55.0279 28.7019 54.5844L29.7329 54.0891C30.2865 53.8162 30.8955 53.6743 31.5127 53.6743C32.1299 53.6743 32.7389 53.8162 33.2925 54.0891L34.3235 54.5959C37.4224 56.1108 41.1145 54.9127 42.733 51.8657L43.2744 50.852C43.562 50.306 43.9714 49.8335 44.4707 49.4709C44.9701 49.1084 45.5462 48.8655 46.1544 48.7612L47.2891 48.5596C50.6874 47.9663 52.9683 44.8214 52.4845 41.4058L52.3232 40.2653C52.1447 39.0154 52.5479 37.7828 53.4234 36.8785L54.224 36.0548C56.6259 33.5781 56.6259 29.6901 54.224 27.2134L53.4291 26.3782ZM52.5709 34.4478L51.7703 35.2715C51.0951 35.9654 50.5882 36.8051 50.2886 37.7258C49.989 38.6465 49.9048 39.6237 50.0423 40.5821L50.2036 41.7226C50.3561 42.7648 50.0951 43.8253 49.4763 44.6777C48.8574 45.5301 47.9299 46.1067 46.8916 46.2844L45.757 46.486C43.8101 46.8258 42.1628 48.0239 41.2412 49.7691L40.6998 50.7829C40.21 51.7156 39.3752 52.4201 38.3735 52.7461C37.3717 53.0722 36.2822 52.9939 35.3373 52.5281L34.3063 52.0213C33.4375 51.5921 32.4816 51.3689 31.5127 51.3689C30.5438 51.3689 29.5879 51.5921 28.7192 52.0213L27.6881 52.5281C26.7435 52.9953 25.6535 53.0743 24.6513 52.7481C23.6492 52.422 22.8144 51.7166 22.3257 50.7829L21.7842 49.7691C21.3332 48.9127 20.6914 48.1712 19.9085 47.602C19.1256 47.0327 18.2223 46.6509 17.2685 46.486L16.1338 46.2844C15.0956 46.1067 14.168 45.5301 13.5492 44.6777C12.9304 43.8253 12.6693 42.7648 12.8218 41.7226L12.9831 40.5821C13.2596 38.6237 12.6318 36.6884 11.2552 35.2715L10.4545 34.4421C9.71791 33.6884 9.30548 32.6764 9.30548 31.6226C9.30548 30.5687 9.71791 29.5568 10.4545 28.8031L11.2552 27.9795C12.626 26.5625 13.2596 24.6214 12.9831 22.6688L12.8218 21.5284C12.6693 20.4862 12.9304 19.4256 13.5492 18.5732C14.168 17.7209 15.0956 17.1443 16.1338 16.9665L17.2685 16.7649C19.2153 16.4251 20.8627 15.227 21.7842 13.4818L22.3257 12.468C22.6674 11.8166 23.1808 11.2711 23.8102 10.8904C24.4397 10.5097 25.1612 10.3083 25.8968 10.3081C26.4958 10.3081 27.1064 10.4406 27.6881 10.7228L28.7192 11.2297C30.4932 12.0994 32.5322 12.0994 34.3063 11.2297L35.3373 10.7228C36.282 10.2556 37.372 10.1767 38.3741 10.5028C39.3763 10.829 40.211 11.5343 40.6998 12.468L41.2412 13.4818C42.1685 15.227 43.8159 16.4251 45.757 16.7649L46.8916 16.9665C49.0574 17.3467 50.5146 19.3511 50.2036 21.5284L50.0423 22.6688C49.7658 24.6272 50.3937 26.5625 51.7703 27.9795L52.5709 28.8089C53.3075 29.5625 53.72 30.5745 53.72 31.6283C53.72 32.6822 53.3075 33.6942 52.5709 34.4478Z" fill="#2C2C2C"/>
<path d="M40.6767 22.4615C40.2275 22.0122 39.496 22.0122 39.0467 22.4615L22.3487 39.1595C22.1878 39.3207 22.0781 39.5259 22.0335 39.7494C21.989 39.9728 22.0115 40.2044 22.0984 40.415C22.1852 40.6257 22.3324 40.8059 22.5215 40.933C22.7106 41.0601 22.9331 41.1284 23.1609 41.1293C23.4546 41.1293 23.7484 41.0141 23.973 40.7895L40.671 24.0916C41.126 23.6423 41.126 22.9108 40.6767 22.4615ZM26.8299 28.5785C28.0856 28.5785 29.3355 28.1005 30.2916 27.1443C32.1982 25.2378 32.1982 22.1274 30.2916 20.2209C28.3851 18.3144 25.2748 18.3144 23.3682 20.2209C22.4409 21.1425 21.934 22.3751 21.934 23.6826C21.934 24.9901 22.4409 26.2227 23.3682 27.1443C23.8221 27.5999 24.3617 27.9611 24.9558 28.2073C25.5499 28.4534 26.1868 28.5796 26.8299 28.5785ZM24.9983 21.851C25.5052 21.3441 26.1675 21.0907 26.8299 21.0907C27.4923 21.0907 28.1547 21.3441 28.6616 21.851C29.1457 22.3376 29.4175 22.9962 29.4175 23.6826C29.4175 24.3691 29.1457 25.0276 28.6616 25.5143C27.6478 26.5222 26.0063 26.5222 24.9983 25.5143C24.5087 25.0247 24.238 24.3738 24.238 23.6826C24.238 22.9914 24.5087 22.3406 24.9983 21.851ZM32.7338 36.1067C30.8273 38.0132 30.8273 41.1236 32.7338 43.0301C33.69 43.9863 34.9399 44.4643 36.1955 44.4643C37.4512 44.4643 38.7011 43.9863 39.6572 43.0301C40.5846 42.1028 41.0914 40.8759 41.0914 39.5684C41.0914 38.2609 40.5846 37.0283 39.6572 36.1067C37.7507 34.1944 34.6461 34.1944 32.7338 36.1067ZM38.0272 41.4001C37.0192 42.408 35.3719 42.408 34.3639 41.4001C33.3559 40.3921 33.3559 38.7447 34.3639 37.7368C34.8708 37.2299 35.5331 36.9765 36.1955 36.9765C36.8579 36.9765 37.5203 37.2299 38.0272 37.7368C38.5168 38.2264 38.7875 38.8772 38.7875 39.5684C38.7875 40.2596 38.5168 40.9105 38.0272 41.4001Z" fill="#2C2C2C"/>
</svg>
